<?xml version="1.0" encoding="UTF-8" standalone="no"?>
<svg
   xmlns:dc="http://purl.org/dc/elements/1.1/"
   xmlns:cc="http://creativecommons.org/ns#"
   xmlns:rdf="http://www.w3.org/1999/02/22-rdf-syntax-ns#"
   xmlns:svg="http://www.w3.org/2000/svg"
   xmlns="http://www.w3.org/2000/svg"
   id="svg8"
   version="1.1"
   viewBox="0 0 42.333334 42.333332"
   height="160"
   width="160">
  <defs
     id="defs2">
    <circle
       transform="matrix(0,1,1,0,0,0)"
       r="20.894958"
       cy="21.166666"
       cx="21.166666"
       id="path828-0"
       style="opacity:1;fill:#ffffff;fill-opacity:1;stroke:#000000;stroke-width:0.54299998;stroke-miterlimit:4;stroke-dasharray:none;stroke-opacity:1" />
    <circle
       style="opacity:1;fill:#ffffff;fill-opacity:1;stroke:#000000;stroke-width:0.38039261;stroke-miterlimit:4;stroke-dasharray:none;stroke-opacity:1"
       id="circle910-0"
       cx="-21.093512"
       cy="21.166666"
       r="14.626471"
       transform="rotate(-90)" />
    <circle
       style="opacity:1;fill:#ffffff;fill-opacity:1;stroke:#000000;stroke-width:0.38039261;stroke-miterlimit:4;stroke-dasharray:none;stroke-opacity:1"
       id="circle910-7"
       cx="-21.093512"
       cy="21.166666"
       r="14.626471"
       transform="rotate(-90)" />
    <circle
       transform="matrix(0,1,1,0,0,0)"
       r="20.894958"
       cy="21.166666"
       cx="21.166666"
       id="path828-6"
       style="opacity:1;fill:#ffffff;fill-opacity:1;stroke:#000000;stroke-width:0.54299998;stroke-miterlimit:4;stroke-dasharray:none;stroke-opacity:1" />
  </defs>
  <metadata
     id="metadata5">
    <rdf:RDF>
      <cc:Work
         rdf:about="">
        <dc:format>image/svg+xml</dc:format>
        <dc:type
           rdf:resource="http://purl.org/dc/dcmitype/StillImage" />
        <dc:title></dc:title>
      </cc:Work>
    </rdf:RDF>
  </metadata>
  <g
     style="display:inline"
     id="layer2">
    <circle
       transform="matrix(0,1,1,0,0,0)"
       r="20.894958"
       cy="21.166666"
       cx="21.166666"
       id="path828"
       style="opacity:1;fill:#ffffff;fill-opacity:1;stroke:#000000;stroke-width:0.54299998;stroke-miterlimit:4;stroke-dasharray:none;stroke-opacity:1" />
    <circle
       style="opacity:1;fill:#ffffff;fill-opacity:1;stroke:#000000;stroke-width:0.38039261;stroke-miterlimit:4;stroke-dasharray:none;stroke-opacity:1"
       id="circle910"
       cx="-21.093512"
       cy="21.166666"
       r="14.626471"
       transform="rotate(-90)" />
    <path
       transform="scale(0.26458333)"
       id="path1124"
       d="M 76.861285,98.012463 49.279928,72.688712 49.405152,71.679707 49.530376,70.670702 47.116317,67.02438 c -1.327732,-2.005478 -4.27581,-6.440287 -6.551284,-9.855133 -2.275473,-3.414845 -4.137224,-6.228909 -4.137224,-6.253475 0,-0.02457 5.244183,-0.04467 11.653739,-0.04467 h 11.65374 l 27.25923,24.887703 c 14.992582,13.688235 27.289262,24.934555 27.325962,24.991805 0.10487,0.16361 2.28613,17.76269 2.21053,17.83524 -0.0993,0.0953 -11.86447,4.76488 -11.9855,4.75703 -0.0566,-0.004 -12.514479,-11.40235 -27.684225,-25.330421 z"
       style="opacity:0.98999999;fill:#a10025;fill-opacity:1;stroke:#000000;stroke-width:0.03273849;stroke-miterlimit:4;stroke-dasharray:none;stroke-opacity:1" />
    <path
       transform="scale(0.26458333)"
       id="path963"
       d="m 102.60244,121.47829 c -1.02089,-0.93703 -6.508936,-5.96559 -12.195665,-11.1746 -5.686732,-5.209 -17.221411,-15.791023 -25.632621,-23.515606 l -15.293113,-14.044695 0.05246,-1.080363 0.05246,-1.080364 -6.455647,-9.712067 -6.455647,-9.712067 0.834719,-0.117095 c 0.459095,-0.0644 5.627017,-0.124065 11.484273,-0.132583 L 59.643214,50.89336 74.979833,64.897979 C 105.8201,93.059734 113.13256,99.743877 113.70897,100.29934 l 0.58833,0.56693 0.94565,7.58465 c 0.5201,4.17156 1.00048,8.15137 1.0675,8.84402 l 0.12186,1.25935 -5.8323,2.32037 c -3.20776,1.27621 -5.90185,2.31743 -5.98686,2.31384 -0.085,-0.004 -0.98983,-0.77318 -2.01071,-1.71021 z"
       style="opacity:1;fill:#ffffff;fill-opacity:1;stroke:#ffffff;stroke-width:0.53033006;stroke-linecap:round;stroke-linejoin:round;stroke-miterlimit:0;stroke-dasharray:none;stroke-opacity:1" />
    <path
       transform="scale(0.26458333)"
       id="path965"
       d="M 74.14139,157.65991 C 55.262574,156.0502 38.279025,148.26768 25.162395,135.21585 12.531052,122.6469 4.7678907,106.63303 2.6240062,88.723577 2.2371218,85.491646 2.0913645,77.632621 2.3564313,74.296319 2.7490681,69.354343 3.617103,64.188666 4.7740655,59.908975 11.633194,34.536543 30.517131,14.49163 55.410244,6.1597102 67.900702,1.9790556 81.096807,1.0543819 94.117157,3.4474503 116.20502,7.5070785 135.55729,21.029237 147.03266,40.421503 c 15.15432,25.60933 14.28357,57.967018 -2.22506,82.685137 -5.05949,7.5755 -11.73246,14.55433 -18.87064,19.73558 -11.1025,8.05877 -23.72221,12.96482 -37.476658,14.56949 -2.821055,0.32912 -11.587698,0.48107 -14.318912,0.2482 z m 13.788582,-22.41652 c 10.458449,-1.56883 20.270638,-5.9344 28.019108,-12.46605 1.69333,-1.42741 5.12952,-4.83613 6.6179,-6.56499 6.93156,-8.05152 11.23677,-17.529929 12.96651,-28.547215 0.51638,-3.289065 0.55851,-11.998971 0.0744,-15.381791 -1.46288,-10.221966 -5.49141,-19.646207 -11.78826,-27.577165 -1.82091,-2.293462 -6.4158,-6.900431 -8.66604,-8.688824 C 106.9004,29.45807 97.950381,25.64486 87.134477,24.079642 84.113789,23.642506 76.008288,23.64221 72.903953,24.079112 c -6.660032,0.937357 -11.793979,2.493676 -17.589281,5.332064 -5.822945,2.851928 -10.280826,6.033774 -14.857908,10.604948 -4.690003,4.683944 -7.90785,9.17127 -10.779032,15.031478 -2.814373,5.744261 -4.416124,11.030282 -5.329835,17.589281 -0.433465,3.111586 -0.433465,11.030549 0,14.142136 1.813324,13.016784 7.479949,24.330391 16.621966,33.186311 9.128363,8.84269 20.552694,14.15492 33.52508,15.58893 2.599898,0.2874 10.695466,0.10007 13.435029,-0.31088 z"
       style="opacity:1;fill:#ffffff;fill-opacity:1;stroke:#ffffff;stroke-width:0.53033006;stroke-linecap:round;stroke-linejoin:round;stroke-miterlimit:0;stroke-dasharray:none;stroke-opacity:1" />
    <path
       transform="scale(0.26458333)"
       id="path967"
       d="M 75.378827,134.03937 C 62.670573,132.83177 51.202319,127.59131 42.16899,118.864 33.059421,110.06304 27.427511,98.686414 25.848021,85.895149 c -0.298821,-2.419956 -0.298821,-9.954412 0,-12.374368 1.543209,-12.497455 6.855255,-23.436832 15.671794,-32.273758 8.409199,-8.428643 18.913746,-13.705687 30.76542,-15.455258 3.257722,-0.480912 8.590373,-0.644789 11.998792,-0.368734 10.859391,0.879528 21.092013,4.911715 29.632123,11.6766 2.38077,1.885882 6.77765,6.282206 8.66832,8.667208 6.60438,8.331189 10.62294,18.295953 11.65047,28.889499 0.23807,2.454477 0.24145,7.824916 0.006,10.203616 -1.00737,10.195212 -4.58743,19.369306 -10.81129,27.704476 -2.45357,3.28589 -7.31269,8.14502 -10.59858,10.59858 -7.54652,5.63497 -15.721067,9.06067 -24.989906,10.47251 -1.93775,0.29516 -3.472388,0.38809 -7.071068,0.42821 -2.527907,0.0282 -4.954167,0.0172 -5.391689,-0.0244 z M 49.332951,71.885596 c -0.04904,-0.121534 -0.08916,-0.0221 -0.08916,0.220971 0,0.243068 0.04013,0.342505 0.08916,0.220971 0.04904,-0.121534 0.04904,-0.320408 0,-0.441942 z"
       style="opacity:1;fill:#ffffff;fill-opacity:1;stroke:#ffffff;stroke-width:0.53033006;stroke-linecap:round;stroke-linejoin:round;stroke-miterlimit:0;stroke-dasharray:none;stroke-opacity:1" />
  </g>
  <g
     style="display:inline"
     id="layer4">
    <path
       style="display:inline;opacity:1;fill:#000000;fill-opacity:1;stroke:#000000;stroke-width:0.11843485;stroke-miterlimit:4;stroke-dasharray:none;stroke-opacity:1"
       id="path933"
       d="m 37.794659,31.873213 -1.342509,-0.821294 -1.437652,0.640322 0.366239,-1.530596 -1.053242,-1.169417 1.568858,-0.124666 0.786712,-1.363062 0.603368,1.453548 1.539457,0.326999 -1.195956,1.023008 z"
       transform="matrix(0.64130812,-0.52288866,0.52288866,0.64130812,-31.696681,32.458095)" />
    <path
       transform="matrix(0.66725505,0.48934585,-0.48934585,0.66725505,25.107051,-5.2558951)"
       d="m 37.794659,31.873213 -1.342509,-0.821294 -1.437652,0.640322 0.366239,-1.530596 -1.053242,-1.169417 1.568858,-0.124666 0.786712,-1.363062 0.603368,1.453548 1.539457,0.326999 -1.195956,1.023008 z"
       id="path985"
       style="display:inline;opacity:1;fill:#000000;fill-opacity:1;stroke:#000000;stroke-width:0.11843485;stroke-miterlimit:4;stroke-dasharray:none;stroke-opacity:1" />
    <g
       id="text848-8"
       style="font-style:normal;font-variant:normal;font-weight:normal;font-stretch:normal;font-size:6.17361116px;line-height:1.25;font-family:'Century Schoolbook';-inkscape-font-specification:'Century Schoolbook, Normal';font-variant-ligatures:normal;font-variant-caps:normal;font-variant-numeric:normal;font-feature-settings:normal;text-align:start;letter-spacing:0.15875px;word-spacing:0px;writing-mode:lr-tb;text-anchor:start;display:inline;fill:#000000;fill-opacity:1;stroke:none;stroke-width:0.27170509"
       transform="matrix(-0.47831134,-0.89352713,0.93495204,-0.44962006,11.542613,48.932141)"
       aria-label=" CITY OF BAGUIO">
      <path
         id="path885"
         style=""
         d="m 27.640873,3.453709 0.319014,-0.3568085 0.182516,0.052477 -0.420294,1.7454246 -0.194105,-0.055809 Q 27.545872,4.0568479 27.355287,3.6287973 27.120161,3.0938426 26.621862,2.9505714 26.083004,2.7956386 25.605771,3.1790975 q -0.477233,0.3834588 -0.807089,1.5307056 -0.27738,0.9647303 -0.03494,1.5833389 0.206989,0.5237278 0.803789,0.6953201 0.521476,0.1499349 0.970712,-0.081608 0.45007,-0.2344396 0.751344,-0.8786411 l 0.205694,0.059141 Q 27.185565,6.8263635 26.63272,7.1128042 26.079875,7.3992448 25.419339,7.2093272 24.883377,7.0552274 24.511795,6.6566875 24.14311,6.2589806 24.018618,5.677421 23.897856,5.0937972 24.071114,4.4912029 24.255201,3.8509465 24.692021,3.3680438 25.131738,2.885974 25.644202,2.7290694 26.1575,2.5692676 26.655799,2.7125388 q 0.27812,0.079965 0.51137,0.2505367 0.23325,0.1705714 0.473704,0.4906335 z" />
      <path
         id="path887"
         style=""
         d="m 29.927902,4.1037612 1.773034,1.040631 -0.114439,0.1949818 -0.304172,-0.1785247 q -0.202781,-0.1190164 -0.287893,-0.099064 -0.08099,0.018878 -0.177115,0.1826631 L 29.108363,8.156176 q -0.102232,0.1741837 -0.08138,0.2458449 0.0273,0.096415 0.191085,0.1925436 l 0.340568,0.1998866 -0.114439,0.1949817 -1.773034,-1.040631 0.114439,-0.1949817 0.335368,0.1968349 q 0.176784,0.1037579 0.259296,0.08228 0.08251,-0.021478 0.184744,-0.1956618 l 1.708954,-2.9117279 q 0.09765,-0.1663844 0.07375,-0.2328461 -0.0377,-0.1025183 -0.23268,-0.2169572 L 29.813463,4.298743 Z" />
      <path
         id="path889"
         style=""
         d="M 33.13466,6.1198495 35.736835,8.632599 34.629198,9.9055035 34.479573,9.7610204 q 0.884865,-1.2114493 0.260343,-1.8145091 -0.125772,-0.1214496 -0.215358,-0.1241471 -0.08742,-6.035e-4 -0.183739,0.099146 l -2.475058,2.5631423 q -0.07538,0.07807 -0.06544,0.158902 0.0099,0.08084 0.114028,0.181348 l 0.323103,0.311999 -0.157047,0.162636 -1.489745,-1.4385489 0.157047,-0.1626359 0.368642,0.3559728 q 0.07373,0.0712 0.148358,0.07202 0.07463,8.27e-4 0.133261,-0.05989 l 2.510655,-2.6000059 q 0.07957,-0.082402 0.06948,-0.1717643 -0.008,-0.091531 -0.118589,-0.1983224 -0.314429,-0.3036239 -0.811644,-0.2096562 -0.410095,0.077521 -0.994824,0.5311733 L 31.894746,7.2650226 Z" />
      <path
         id="path891"
         style=""
         d="m 36.827495,9.9614927 0.941813,1.7113263 -0.19807,0.109007 -0.104646,-0.190148 q -0.130807,-0.237684 -0.207022,-0.288642 -0.07622,-0.05096 -0.142239,-0.01462 -0.06866,0.03779 -0.103776,0.105284 l -0.993182,1.840333 1.704967,-0.0093 q 0.113313,-4.26e-4 0.216309,-0.05711 0.137329,-0.07558 0.169782,-0.210426 0.03245,-0.134847 -0.05911,-0.301226 l -0.100286,-0.182225 0.19807,-0.109006 0.819726,1.489488 -0.19807,0.109006 q -0.140981,-0.256171 -0.312164,-0.354647 -0.171183,-0.09848 -0.495009,-0.09918 l -2.1462,0.0078 -1.235958,0.680198 q -0.09772,0.05378 -0.109448,0.132491 -0.01331,0.107109 0.06953,0.257642 l 0.184584,0.335399 -0.19807,0.109006 -0.986869,-1.793195 0.19807,-0.109006 0.194758,0.353885 q 0.07848,0.142611 0.163544,0.178378 0.0877,0.03431 0.180133,-0.01656 l 1.201626,-0.661304 1.221152,-2.251382 q 0.07788,-0.146085 0.06728,-0.277884 -0.008,-0.133252 -0.139298,-0.384407 z" />
      <path
         id="path893"
         style=""
         d="m 40.318808,20.084839 q 0.02843,0.562986 -0.244848,1.068767 -0.270112,0.508639 -0.789007,0.812522 -0.515733,0.306742 -1.181081,0.340336 -0.665348,0.03359 -1.215375,-0.219336 -0.550028,-0.252931 -0.875868,-0.728461 -0.322678,-0.472672 -0.350343,-1.020606 -0.02706,-0.535891 0.241259,-1.020293 0.271328,-0.484554 0.801809,-0.798077 0.533645,-0.310664 1.198993,-0.344259 0.656316,-0.03314 1.197008,0.214227 0.543854,0.250224 0.866076,0.713864 0.325231,0.463488 0.351377,0.981316 z m -0.229386,0.05987 q -0.02964,-0.587071 -0.535756,-0.926731 -0.506114,-0.33966 -1.608002,-0.284025 -1.195218,0.06035 -1.633983,0.456771 -0.438766,0.396423 -0.410948,0.947367 0.01946,0.38536 0.241935,0.666902 0.222478,0.281541 0.682736,0.430345 0.46041,0.151815 1.195002,0.114725 0.800826,-0.04043 1.241201,-0.225658 0.443385,-0.185375 0.644949,-0.497382 0.201563,-0.312007 0.182866,-0.682314 z" />
      <path
         id="path895"
         style=""
         d="m 40.044756,24.409684 -0.948038,3.500279 -1.50549,-0.345295 0.05438,-0.200764 q 0.804392,0.07421 1.102571,-0.104248 0.345461,-0.203125 0.48416,-0.715219 l 0.18677,-0.689581 q 0.02758,-0.101837 -0.0093,-0.161788 -0.03394,-0.05916 -0.129963,-0.08517 l -1.556649,-0.421613 -0.100084,0.369522 q -0.08353,0.30842 0.07049,0.546891 0.154026,0.238471 0.574891,0.368076 l -0.05674,0.209493 -1.940721,-0.525637 0.05674,-0.209493 q 0.488514,0.110451 0.743169,-0.01108 0.254655,-0.121535 0.339766,-0.435774 L 37.510819,25.128757 35.86979,24.68429 q -0.145481,-0.0394 -0.225496,0.01388 -0.07711,0.05407 -0.123602,0.225738 l -0.121362,0.448082 -0.218222,-0.0591 0.560312,-2.068743 0.218222,0.0591 -0.119785,0.442263 q -0.03625,0.133843 0.0011,0.203311 0.03952,0.07317 0.161726,0.106264 l 3.421719,0.926761 q 0.116385,0.03152 0.182398,-0.01618 0.06523,-0.0448 0.105416,-0.193187 l 0.114269,-0.421895 z" />
      <path
         id="path897"
         style=""
         d="m 37.041925,31.863978 -1.49309,1.781107 q -0.439599,0.524399 -0.903,0.607958 -0.465336,0.08587 -0.814166,-0.206552 -0.291075,-0.244007 -0.331695,-0.608475 -0.04062,-0.364469 0.168843,-0.853645 -0.506388,0.397608 -0.927252,0.453888 -0.420491,0.06053 -0.753149,-0.218339 -0.254114,-0.213022 -0.334281,-0.516237 -0.0821,-0.300906 0.05078,-0.736271 0.130948,-0.433054 0.471783,-0.839636 l 1.448549,-1.727975 0.17326,0.145242 -0.236261,0.281836 q -0.106511,0.127057 -0.113343,0.219668 -0.0088,0.09492 0.04436,0.139462 l 2.7375,2.294827 q 0.09702,0.08134 0.193952,0.06425 0.09924,-0.01515 0.192192,-0.126035 l 0.251753,-0.300317 z m -2.426846,-0.295787 -0.542238,0.646835 q -0.249817,0.298006 -0.221426,0.620755 0.02645,0.325058 0.426106,0.660084 0.247184,0.207212 0.457444,0.237931 0.208324,0.03303 0.406257,-0.07639 0.198306,-0.105175 0.529459,-0.500207 0.234324,-0.279525 0.248902,-0.381377 0.01689,-0.09992 -0.08476,-0.185124 z m -0.17095,-0.143306 -1.316772,-1.103841 q -0.09241,-0.07746 -0.183148,-0.06306 -0.09268,0.01671 -0.210811,0.15763 l -0.346645,0.413512 q -0.344708,0.411203 -0.329126,0.758616 0.01789,0.349349 0.401373,0.670818 0.35114,0.294358 0.722538,0.259548 0.373709,-0.03287 0.673876,-0.390944 z" />
      <path
         id="path899"
         style=""
         d="m 31.384673,37.325545 -0.17128,0.107025 -3.518737,-2.610618 q -0.212792,-0.158509 -0.465878,-3.67e-4 l -0.117595,0.07348 -0.119805,-0.191731 1.508288,-0.942465 0.119805,0.191732 -0.120152,0.07508 q -0.235191,0.146961 -0.300387,0.25879 -0.0441,0.07732 0.0022,0.151459 0.02716,0.04346 0.0754,0.08085 l 0.816022,0.606236 1.492949,-0.93288 -0.111138,-0.570376 q -0.04599,-0.227192 -0.11308,-0.334561 -0.07827,-0.125265 -0.249221,-0.142857 -0.173504,-0.01599 -0.395912,0.122979 l -0.127821,0.07987 -0.119805,-0.191731 1.370241,-0.856205 0.119805,0.191731 q -0.219852,0.137376 -0.28857,0.311834 -0.06712,0.177014 -0.0068,0.512528 z M 31.003551,36.550641 30.628318,34.44265 29.29131,35.278088 Z" />
      <path
         id="path901"
         style=""
         d="m 24.400467,39.581246 -0.139809,0.487765 -0.196665,0.04598 -0.51352,-1.706432 0.190794,-0.04461 q 0.395153,0.697028 0.772791,0.96165 0.481101,0.336399 0.97423,0.221101 0.378654,-0.08853 0.627954,-0.372811 0.249301,-0.284278 0.310543,-0.750578 0.05831,-0.465613 -0.123562,-1.243466 -0.176378,-0.754371 -0.434397,-1.142929 -0.260954,-0.387871 -0.590097,-0.524522 -0.328456,-0.133716 -0.707109,-0.04518 -0.513677,0.120102 -0.725273,0.472959 -0.214531,0.353543 -0.108155,0.808514 l 0.09539,0.408006 q 0.02265,0.09687 0.111318,0.131856 0.08574,0.03568 0.255983,-0.0041 l 0.366912,-0.08579 0.04804,0.205471 -1.819883,0.425503 -0.04804,-0.20547 0.246565,-0.05765 q 0.164376,-0.03843 0.221098,-0.11361 0.05741,-0.07224 0.03201,-0.180847 l -0.387757,-1.658442 0.193729,-0.0453 q 0.196262,0.362753 0.39378,0.691158 0.135733,-0.412514 0.398454,-0.665877 0.260471,-0.249741 0.644995,-0.339646 0.5489,-0.128337 1.084432,0.04364 0.532596,0.172667 0.924994,0.619583 0.390149,0.450537 0.541134,1.096302 0.151671,0.648701 -0.0012,1.226203 -0.15288,0.577502 -0.554774,0.990331 -0.40483,0.413515 -0.889153,0.526754 -0.275918,0.06451 -0.54738,0.02892 -0.27371,-0.03197 -0.648371,-0.204418 z" />
      <path
         id="path903"
         style=""
         d="m 21.288165,40.322389 -2.045104,-0.23773 0.0261,-0.224573 0.410218,0.04769 q 0.164687,0.01914 0.236826,-0.0271 0.07214,-0.04624 0.08502,-0.157029 l 0.290636,-2.500238 q 0.0456,-0.392252 4.9e-5,-0.600876 -0.06735,-0.308269 -0.316298,-0.516259 -0.251945,-0.208338 -0.689112,-0.259155 -0.604848,-0.07031 -0.958443,0.204201 -0.353942,0.277506 -0.414854,0.801508 l -0.236338,2.033127 q -0.03133,0.269487 -0.0084,0.411749 0.01957,0.144909 0.08238,0.231114 0.05982,0.08586 0.163437,0.13432 0.10327,0.05146 0.354791,0.08069 l -0.02611,0.224572 -1.673812,-0.19457 0.0261,-0.224572 0.119772,0.01392 q 0.281464,0.03272 0.436953,-0.103979 0.155141,-0.133704 0.188556,-0.421156 l 0.253045,-2.176854 q 0.08284,-0.712642 0.534269,-1.04558 0.507901,-0.37493 1.268452,-0.286521 0.658745,0.07657 1.014446,0.306078 0.355353,0.232497 0.485304,0.602669 0.09778,0.28146 0.05079,0.68569 l -0.310825,2.673906 q -0.01183,0.101806 0.05342,0.167051 0.06191,0.06789 0.202639,0.08425 l 0.422196,0.04908 z" />
      <path
         id="path905"
         style=""
         d="m 14.947213,39.170287 -1.904935,-0.773165 0.08503,-0.209487 0.326799,0.13264 q 0.217867,0.08843 0.299197,0.05637 0.0774,-0.0304 0.148824,-0.206366 l 1.269715,-3.128339 q 0.07596,-0.187142 0.04495,-0.255032 -0.04096,-0.09145 -0.21693,-0.162872 l -0.365904,-0.148511 0.08502,-0.209487 1.904936,0.773165 -0.08503,0.209487 -0.360317,-0.146244 q -0.189935,-0.07709 -0.268472,-0.0439 -0.07854,0.03319 -0.154493,0.220332 l -1.269714,3.128339 q -0.07256,0.178763 -0.03928,0.241066 0.05213,0.09599 0.261621,0.181011 l 0.324007,0.131506 z" />
      <path
         id="path907"
         style=""
         d="M 9.6434281,36.425044 Q 9.1936122,36.085297 8.9813924,35.551017 8.7649504,35.017325 8.8652287,34.424416 q 0.096056,-0.592321 0.4975744,-1.123922 0.4015184,-0.5316 0.9486189,-0.790803 0.5471,-0.259202 1.120868,-0.203602 0.569546,0.05619 1.007334,0.38685 0.428167,0.323395 0.627183,0.840146 0.197198,0.519157 0.09687,1.127139 -0.104551,0.608571 -0.50607,1.140171 -0.396068,0.524384 -0.932907,0.780004 -0.541061,0.256208 -1.10339,0.205471 -0.564146,-0.04833 -0.9778809,-0.360826 z m 0.1014086,-0.214288 q 0.4690593,0.354281 1.0544423,0.184437 0.585383,-0.169844 1.250341,-1.050232 0.72128,-0.954957 0.699164,-1.545869 -0.02212,-0.590912 -0.462311,-0.923391 -0.307895,-0.232554 -0.666583,-0.242811 -0.358688,-0.01026 -0.768321,0.246998 -0.412039,0.255439 -0.8553445,0.842365 -0.4832755,0.639845 -0.6240892,1.096363 -0.1426304,0.458923 -0.032899,0.813797 0.1097318,0.354874 0.4056,0.578343 z" />
    </g>
    <g
       id="text848-5-8"
       style="font-style:normal;font-variant:normal;font-weight:normal;font-stretch:normal;font-size:6.32742262px;line-height:1.25;font-family:'Century Schoolbook';-inkscape-font-specification:'Century Schoolbook, Normal';font-variant-ligatures:normal;font-variant-caps:normal;font-variant-numeric:normal;font-feature-settings:normal;text-align:start;letter-spacing:0.5291667px;word-spacing:0px;writing-mode:lr-tb;text-anchor:start;display:inline;fill:#000000;fill-opacity:1;stroke:none;stroke-width:0.27170509"
       transform="rotate(22.489811,23.910679,20.925877)"
       aria-label="1909">
      <path
         id="path910"
         style=""
         d="m 22.954144,37.686106 0.32097,3.842391 q 0.0072,0.08621 0.07264,0.127246 0.09469,0.0572 0.223998,0.04639 l 0.597295,-0.04989 0.01929,0.230913 -2.213685,0.184918 -0.01929,-0.230913 0.511087,-0.04269 q 0.1601,-0.01337 0.230898,-0.0937 0.07054,-0.0834 0.06,-0.209633 l -0.242528,-2.903345 q -0.0075,-0.08929 -0.08342,-0.144948 -0.07596,-0.05566 -0.186795,-0.0464 l -0.683502,0.05709 -0.01775,-0.21244 q 0.475155,-0.101698 0.765315,-0.228246 0.289903,-0.129628 0.503849,-0.314917 z" />
      <path
         id="path912"
         style=""
         d="m 27.15887,38.884804 q -0.110135,0.346227 -0.326288,0.568467 -0.217,0.219268 -0.537892,0.310731 -0.445684,0.127032 -0.900068,-0.08078 -0.451411,-0.20866 -0.624175,-0.81479 -0.168528,-0.591274 0.114871,-1.118603 0.285524,-0.531147 0.844115,-0.69036 0.615044,-0.175304 1.170736,0.218878 0.555692,0.394181 0.819072,1.318233 0.218494,0.766577 0.140454,1.360665 -0.07592,0.590269 -0.376612,0.955473 -0.301543,0.362232 -0.770997,0.496039 -0.454598,0.129572 -0.769835,0.0042 -0.313113,-0.129212 -0.39272,-0.408507 -0.05251,-0.184216 0.0193,-0.326763 0.07478,-0.143395 0.235229,-0.189126 0.14559,-0.0415 0.274559,0.02776 0.128969,0.06926 0.167925,0.205933 0.02795,0.09805 -0.03029,0.243153 -0.03528,0.09037 -0.02004,0.143853 0.02371,0.08319 0.139547,0.117643 0.114988,0.03148 0.331888,-0.03034 0.309007,-0.08808 0.495462,-0.324339 0.185608,-0.239235 0.220257,-0.669962 0.0338,-0.433699 -0.143195,-1.054686 z m -1.359548,-1.613949 q -0.332778,0.09485 -0.4671,0.435121 -0.135168,0.3373 0.02404,0.89589 0.145663,0.511051 0.431576,0.70263 0.285066,0.188608 0.629728,0.09037 0.341691,-0.09739 0.496381,-0.433829 0.157661,-0.337285 0.01877,-0.824566 -0.143969,-0.505109 -0.472298,-0.732787 -0.325357,-0.228526 -0.661105,-0.132829 z" />
      <path
         id="path914"
         style=""
         d="m 28.686381,35.891531 q 0.536387,-0.274323 1.107809,-0.0391 0.705932,0.287889 1.24051,1.333154 0.496595,0.970997 0.371753,1.676827 -0.12625,0.703078 -0.670888,0.981622 -0.525384,0.268696 -1.095525,0.02241 -0.714435,-0.311301 -1.232132,-1.323558 -0.492375,-0.962745 -0.368224,-1.744564 0.09931,-0.626838 0.646697,-0.906788 z m 0.117793,0.18961 q -0.363092,0.185695 -0.387982,0.639136 -0.0263,0.450691 0.533604,1.545469 0.547239,1.070022 0.939174,1.320697 0.394686,0.249269 0.749527,0.06779 0.35759,-0.182882 0.381325,-0.611441 0.02714,-0.510113 -0.506034,-1.552628 -0.55146,-1.078274 -0.953117,-1.334388 -0.401657,-0.256114 -0.756497,-0.07464 z" />
      <path
         id="path916"
         style=""
         d="m 33.407432,35.301476 q 0.02934,0.362136 -0.08642,0.649731 -0.117675,0.285167 -0.37994,0.491455 -0.364256,0.286511 -0.863504,0.26647 -0.49682,-0.02195 -0.886475,-0.517339 -0.380104,-0.483247 -0.317773,-1.078651 0.06285,-0.599743 0.519384,-0.958837 0.502674,-0.395385 1.166322,-0.241294 0.663649,0.154091 1.257681,0.909316 0.492799,0.626521 0.645807,1.205848 0.153526,0.574988 0.01373,1.026926 -0.141709,0.449509 -0.525393,0.751301 -0.371541,0.292241 -0.710785,0.295716 -0.338725,-8.63e-4 -0.518272,-0.229131 -0.118425,-0.150559 -0.106014,-0.30969 0.01484,-0.161041 0.145971,-0.264185 0.11899,-0.09359 0.264588,-0.0784 0.145597,0.01519 0.23346,0.126899 0.06303,0.08014 0.06416,0.236484 0.0016,0.097 0.03599,0.140711 0.05348,0.068 0.17373,0.05596 0.118338,-0.01446 0.295609,-0.1539 0.252551,-0.198647 0.335519,-0.487961 0.08106,-0.291741 -0.05017,-0.703452 -0.13314,-0.414139 -0.532345,-0.92167 z m -1.869921,-0.978058 q -0.271978,0.213928 -0.267275,0.579721 0.0028,0.363364 0.361888,0.819899 0.328532,0.417681 0.665732,0.486568 0.335289,0.06646 0.616981,-0.15511 0.279263,-0.219659 0.29486,-0.589627 0.01803,-0.371878 -0.295227,-0.770132 -0.324713,-0.412824 -0.714847,-0.499035 -0.387706,-0.08812 -0.662112,0.127716 z" />
    </g>
  </g>
  <g
     style="display:inline"
     id="layer5">
    <path
       transform="translate(2.078868,-0.51971726)"
       id="path1116"
       d="m 19.116146,13.837472 -11.8396253,-0.0053 3.6015153,5.41928 -1.6235057,12.717675 9.8758087,3.9593 m -0.02866,-22.090969 11.839614,0.01719 -3.611802,5.41243 1.599347,12.720735 -9.883311,3.940535"
       style="fill:none;stroke:#000000;stroke-width:0.26458332px;stroke-linecap:butt;stroke-linejoin:miter;stroke-opacity:1" />
    <path
       id="path1120"
       d="M 15.875,13.328385 30.360937,26.557552"
       style="fill:none;stroke:#000000;stroke-width:0.26458332px;stroke-linecap:butt;stroke-linejoin:miter;stroke-opacity:1" />
    <path
       id="path1122"
       d="M 12.914974,19.314583 27.582812,32.77526"
       style="fill:none;stroke:#000000;stroke-width:0.26458332px;stroke-linecap:butt;stroke-linejoin:miter;stroke-opacity:1" />
    <path
       transform="scale(0.26458333)"
       id="path1126"
       d="M 101.87111,120.85593 C 96.892126,116.32552 50.341301,73.634004 49.658952,72.972433 l -0.336469,-0.326223 0.129803,-0.994086 0.129802,-0.994086 -6.52639,-9.827175 -6.52639,-9.827174 11.617431,-0.02242 11.61743,-0.02242 13.721373,12.527162 c 16.074864,14.675823 31.638388,28.893173 36.879118,33.689236 2.04177,1.868531 3.76001,3.440923 3.8183,3.494213 0.14268,0.13041 0.81132,5.16353 1.83291,13.79707 0.21859,1.84732 0.41738,3.524 0.44176,3.72595 l 0.0443,0.36719 -1.1241,0.46223 c -2.75542,1.13302 -10.66364,4.23927 -10.79276,4.23927 -0.0388,0 -1.26012,-1.08235 -2.71398,-2.40523 z"
       style="opacity:0.98999999;fill:#ff5430;fill-opacity:0.72463768;stroke:#000000;stroke-width:0.03273849;stroke-miterlimit:4;stroke-dasharray:none;stroke-opacity:1" />
    <ellipse
       ry="1.5317885"
       rx="1.6136397"
       cy="17.251759"
       cx="15.575131"
       id="path1128"
       style="opacity:0.98999999;fill:#fbff02;fill-opacity:0.63285068;stroke:#000000;stroke-width:0.098;stroke-miterlimit:4;stroke-dasharray:none;stroke-opacity:1" />
    <ellipse
       style="opacity:0.98999999;fill:#fbff02;fill-opacity:0.63285068;stroke:#000000;stroke-width:0.098;stroke-miterlimit:4;stroke-dasharray:none;stroke-opacity:1"
       id="ellipse1130"
       cx="19.34029"
       cy="20.876602"
       rx="1.6136397"
       ry="1.5317885" />
    <ellipse
       ry="1.5317885"
       rx="1.6136397"
       cy="24.454674"
       cx="23.152222"
       id="ellipse1132"
       style="opacity:0.98999999;fill:#fbff02;fill-opacity:0.63285068;stroke:#000000;stroke-width:0.098;stroke-miterlimit:4;stroke-dasharray:none;stroke-opacity:1" />
    <ellipse
       style="opacity:0.98999999;fill:#fbff02;fill-opacity:0.63285068;stroke:#000000;stroke-width:0.098;stroke-miterlimit:4;stroke-dasharray:none;stroke-opacity:1"
       id="ellipse1134"
       cx="27.034311"
       cy="27.939199"
       rx="1.6136397"
       ry="1.5317885" />
    <path
       id="path1136"
       d="m 20.236491,17.218587 c 0,0 0.636654,-0.343132 0.634586,-0.489893 0.02688,-0.159163 1.676384,0.159164 1.878955,-0.02687 0.202572,-0.186035 0.202572,-0.181901 0.202572,-0.181901 0,0 0.384473,0.107483 0.562239,0.01653 0.177767,-0.09095 1.134089,-1.003577 1.134089,-1.003577 0,0 0.420949,-0.38587 0.491108,-0.06431 0.07016,0.321558 0.578805,1.069913 0.578805,1.069913 0,0 0.274787,0.222168 0.502801,0.02339 0.228014,-0.198782 0.356638,-0.596346 0.836053,-0.678197 0.479414,-0.08185 0.619731,-0.07016 0.912056,0.08185 0.292327,0.15201 -0.07016,0.175396 0.350792,0.374178 0.42095,0.198782 2.747864,-0.1257 2.747864,-0.1257"
       style="fill:none;stroke:#000000;stroke-width:0.065;stroke-linecap:butt;stroke-linejoin:miter;stroke-miterlimit:4;stroke-dasharray:none;stroke-opacity:1" />
    <path
       id="path1140"
       d="m 25.982648,16.6361 c 0,0 0.290969,0.420363 0.267583,0.630837 0.01175,0.210475 0.190265,0.497273 0.171831,0.691065 -0.122729,0.282882 0.03494,1.091587 0.09374,1.384805 0.09342,0.465716 0.340981,2.36544 0.275199,2.65657 -0.210474,0.584652 -0.411506,0.888428 -0.411506,0.888428"
       style="fill:none;stroke:#000000;stroke-width:0.05;stroke-linecap:butt;stroke-linejoin:miter;stroke-miterlimit:4;stroke-dasharray:none;stroke-opacity:1" />
    <path
       id="path842"
       d="m 26.371254,16.408724 c 0,0 0.31006,0.442345 0.429948,0.434075 0.11989,-0.008 0.167948,0.346123 0.220568,0.369523 0.05262,0.0234 0.325278,-0.05965 0.301891,0.180047 -0.02339,0.23971 0.003,0.301602 0.07896,0.441922 0.076,0.14031 0.427798,0.387163 0.49211,0.545023 0.0985,0.397189 0.163238,0.716582 0.188042,0.824063 0.03533,0.153076 0.16275,1.222219 0.384918,1.362529 0.222168,0.14032 0.572958,1.53179 0.432641,1.75396 -0.140316,0.22217 0.233863,0.26894 0.30402,0.38587 0.07016,0.11693 0.596346,3.250666 0.596346,3.250666"
       style="display:inline;opacity:1;fill:none;stroke:#000000;stroke-width:0.05000625;stroke-linecap:butt;stroke-linejoin:miter;stroke-miterlimit:4;stroke-dasharray:none;stroke-opacity:1" />
    <path
       transform="scale(0.26458333)"
       id="path952"
       d="M 88.645626,75.799652 C 82.52209,70.209727 77.378554,65.504498 77.215547,65.343588 l -0.296376,-0.292563 0.738318,-0.491462 c 0.890936,-0.593052 1.068042,-0.740611 1.267764,-1.056257 0.148291,-0.234365 0.181124,-0.243106 0.91703,-0.244122 0.419778,-5.8e-4 1.678052,0.06513 2.796165,0.146018 1.230867,0.08905 2.268782,0.121511 2.630725,0.08228 0.538063,-0.05832 0.64404,-0.104399 1.06066,-0.46121 0.354355,-0.303486 0.51467,-0.386277 0.683838,-0.353154 0.646878,0.126659 1.318781,0.153887 1.643014,0.06658 0.422226,-0.113694 1.351716,-0.872761 3.514046,-2.869745 1.984642,-1.832883 2.499627,-2.073718 2.716004,-1.270155 0.13015,0.483338 0.673592,1.56225 1.378971,2.737716 0.766484,1.277291 0.92103,1.446534 1.482547,1.623537 0.455882,0.143704 0.482021,0.169948 0.84181,0.845199 0.264479,0.496373 0.407468,0.905919 0.496956,1.423361 0.0691,0.399558 0.230825,1.02478 0.359388,1.389382 0.169112,0.479602 0.226478,0.797341 0.207453,1.149049 -0.06473,1.196522 -0.0123,2.850116 0.113489,3.579728 0.07543,0.437522 0.256731,1.491553 0.402881,2.342291 0.45696,2.659977 0.98558,7.337229 0.98558,8.720514 0,0.503045 -0.056,0.784849 -0.25559,1.287166 -0.36897,0.92845 -0.945797,2.157197 -1.040004,2.21542 -0.04449,0.0275 -5.091053,-4.523585 -11.21459,-10.113511 z"
       style="opacity:1;fill:#ccff00;fill-opacity:0.63285068;stroke:none;stroke-width:0.0167054;stroke-miterlimit:4;stroke-dasharray:none;stroke-opacity:1" />
    <path
       transform="scale(0.26458333)"
       id="path954"
       d="m 113.41203,98.409419 -0.69251,-0.633531 -0.61199,-3.535534 c -0.65262,-3.770275 -1.23966,-6.957072 -1.46158,-7.934324 -0.14345,-0.631684 -0.15503,-0.645548 -0.94801,-1.134194 -0.40798,-0.251403 -0.42587,-0.278588 -0.36056,-0.547754 0.14347,-0.591307 0.0796,-2.111791 -0.12885,-3.067456 -0.40502,-1.856869 -0.95412,-3.308874 -1.46526,-3.874645 -0.55571,-0.615108 -0.80846,-1.41104 -1.28167,-4.036112 -0.43752,-2.427065 -0.8725,-4.200596 -1.11919,-4.563216 -0.11995,-0.176315 -0.51047,-0.583292 -0.86782,-0.904392 -0.86197,-0.774523 -1.10907,-1.259879 -1.10907,-2.178445 0,-0.843763 -0.0845,-0.96888 -0.70606,-1.045588 l -0.4765,-0.05881 -0.21208,-0.53033 c -0.24054,-0.601482 -0.42168,-0.839689 -0.63854,-0.839689 -0.24429,0 -1.41397,-1.262231 -1.41397,-1.525857 0,-0.240672 1.05111,-1.284895 1.52845,-1.518435 0.57321,-0.280447 2.17869,-0.534343 2.84915,-0.450575 0.25665,0.03207 0.74891,0.193579 1.09391,0.358919 0.56434,0.270452 0.62729,0.326362 0.62729,0.557181 0,0.309356 0.30861,0.6423 0.82877,0.894103 0.9356,0.452916 3.78075,0.406615 8.47905,-0.137984 0.67117,-0.0778 1.24073,-0.121023 1.26569,-0.09606 0.025,0.02497 -1.31541,2.086008 -2.97861,4.580093 l -3.024,4.534699 1.7782,14.140766 c 0.97801,7.77742 1.76921,14.149749 1.75823,14.16073 -0.011,0.01098 -0.33159,-0.265125 -0.71247,-0.613567 z"
       style="opacity:1;fill:#008000;fill-opacity:0.63285068;stroke:none;stroke-width:0.0167054;stroke-miterlimit:4;stroke-dasharray:none;stroke-opacity:1" />
    <path
       transform="scale(0.26458333)"
       id="path956"
       d="M 98.94492,85.086547 C 94.768311,81.359079 77.566469,65.665987 77.174465,65.225549 c -0.158554,-0.178143 -0.149515,-0.188321 0.682379,-0.768323 0.463684,-0.323283 0.924338,-0.701929 1.023675,-0.841436 0.09934,-0.139506 0.289451,-0.277076 0.422475,-0.30571 0.133024,-0.02863 0.918032,-0.01219 1.744463,0.03653 4.435748,0.261534 4.564718,0.254933 5.267793,-0.269631 l 0.472415,-0.35247 0.842207,0.05769 c 0.650737,0.04457 0.912537,0.02773 1.151566,-0.07407 0.412312,-0.175603 1.150005,-0.777478 2.99009,-2.439582 2.36581,-2.136976 2.827488,-2.385296 3.078789,-1.655967 0.282916,0.821082 1.734076,3.43554 2.181572,3.930393 0.10485,0.115946 0.38951,0.30023 0.632578,0.40952 0.243068,0.10929 0.507013,0.272961 0.586545,0.363714 0.281298,0.320983 0.609357,1.097681 0.787292,1.863954 0.0991,0.426758 0.263643,1.054347 0.365658,1.394642 0.157966,0.526928 0.188696,0.887533 0.207141,2.43068 0.01938,1.621824 0.05477,2.002097 0.337241,3.623922 0.614596,3.528773 1.118336,7.710082 1.143906,9.494964 0.0153,1.070287 -0.0666,1.355056 -0.88957,3.091336 l -0.330861,0.698067 z"
       style="opacity:1;fill:#008000;fill-opacity:0.63285068;stroke:none;stroke-width:0.0167054;stroke-miterlimit:4;stroke-dasharray:none;stroke-opacity:1" />
    <path
       transform="scale(0.26458333)"
       id="path958"
       d="m 106.26836,91.910329 c -3.33438,-3.043803 -6.09824,-5.569212 -6.14192,-5.612021 -0.064,-0.06273 0.004,-0.253062 0.35098,-0.980561 0.23672,-0.496501 0.53964,-1.183979 0.67317,-1.527729 l 0.24277,-0.625 -0.007,-0.96875 c -0.0137,-1.813801 -0.56925,-6.522117 -1.11811,-9.475378 -0.403342,-2.170264 -0.535997,-3.591616 -0.398952,-4.274622 0.142772,-0.711552 0.09855,-1.125399 -0.220083,-2.059898 -0.157745,-0.462631 -0.286808,-0.941878 -0.286808,-1.064994 0,-0.391535 -0.183208,-0.946733 -0.534172,-1.618775 -0.187456,-0.358948 -0.340828,-0.658773 -0.340828,-0.666277 0,-0.0075 0.09815,-0.03206 0.218118,-0.05456 0.143402,-0.0269 0.347446,-0.160654 0.595663,-0.390459 0.20765,-0.192247 0.38528,-0.338683 0.394734,-0.325412 0.516018,0.724349 1.191268,1.404006 1.457958,1.467477 0.27925,0.06646 0.36801,0.182259 0.58495,0.763085 0.11166,0.298961 0.23078,0.578723 0.2647,0.621692 0.0376,0.04763 0.21458,0.07813 0.45336,0.07813 0.62363,0 0.67224,0.06713 0.68247,0.942487 0.008,0.679406 0.0184,0.733254 0.21757,1.11869 0.15913,0.307993 0.40679,0.599743 1.03455,1.218749 0.45394,0.447603 0.85704,0.898199 0.89579,1.001324 0.0664,0.176626 0.28087,1.072486 0.57388,2.396712 0.0711,0.321318 0.22757,1.151005 0.34772,1.84375 0.4357,2.512107 0.73064,3.453783 1.27238,4.06244 0.38203,0.429219 0.64134,0.95458 0.96298,1.951001 0.61909,1.917854 0.92469,3.86268 0.70159,4.464847 -0.16558,0.44694 -0.17455,0.489685 -0.13546,0.645458 0.0528,0.210392 0.31672,0.453384 0.73396,0.675769 0.19861,0.105858 0.40673,0.242878 0.46249,0.30449 0.0591,0.06532 0.19196,0.550979 0.31869,1.165027 0.42668,2.0675 1.85972,10.210677 1.82488,10.369766 -0.0112,0.05096 -2.56073,-2.232289 -6.08172,-5.446449 z"
       style="opacity:1;fill:#00acc3;fill-opacity:0.63285068;stroke:none;stroke-width:0.0118125;stroke-miterlimit:4;stroke-dasharray:none;stroke-opacity:1" />
    <path
       id="path960"
       d="m 15.349968,21.571809 c 0,0 -0.184093,0.380552 -0.371182,0.403938 -0.187088,0.02339 -0.970522,-0.05846 -1.169304,0 -0.198781,0.05847 -0.491107,0.163703 -0.152009,0.584652 0.339098,0.42095 2.946646,0.198782 3.437754,0.876978 0.491108,0.678197 0.838445,0.860614 0.622124,1.234791 -0.216321,0.374178 -2.633326,-0.08303 -2.855494,0.244379 -0.222168,0.327405 -0.596345,0.701583 0.15201,0.818513 0.748354,0.11693 4.478435,0.122777 4.665523,1.151766 0.187089,1.028985 -0.257247,1.110837 -0.65481,1.251153 -0.397563,0.140317 -2.584162,-0.152008 -2.92326,0.853594 -0.339099,1.005602 2.934953,1.368086 3.34421,1.27454 0.409256,-0.09354 3.718387,-0.491106 4.232881,-0.35079 0.514494,0.140317 0.339098,0.397563 0.958829,0.292325"
       style="fill:none;stroke:#000000;stroke-width:0.05;stroke-linecap:butt;stroke-linejoin:miter;stroke-miterlimit:4;stroke-dasharray:none;stroke-opacity:1" />
    <path
       id="path962"
       d="m 14.914475,21.29755 c 0,0 0.157856,0.181243 -0.391717,0.26894 -0.549573,0.0877 -1.3447,0.01169 -1.414858,0.245554 -0.07016,0.233861 -0.660657,0.836053 0.04677,1.052374 0.707429,0.216321 2.414613,0.380024 2.525697,0.660657 0.111084,0.280633 0.333252,0.684043 -0.192935,0.760048 -0.526187,0.07601 -2.367841,-0.228014 -2.42046,0.204628 -0.05262,0.432642 -0.812666,0.707429 -0.163702,1.099146 0.648963,0.391717 1.549328,0.830206 2.455538,0.853592 0.906211,0.02339 2.005357,-0.01754 2.186599,0.292326 0.181242,0.309866 0.274787,0.660656 -0.0877,0.935445 -0.362484,0.274785 -2.473078,-0.35664 -3.122042,0.409254 -0.648964,0.765895 -0.485261,1.327161 -0.356638,1.514251 0.128624,0.187086 1.22777,1.338852 2.011204,1.461629 0.783433,0.122778 2.601701,0.409255 3.420214,0.08185 0.818513,-0.327406 3.010959,-0.561266 3.560532,-0.239707 0.549573,0.321558 3.180507,1.537634 3.958093,1.426551"
       style="fill:none;stroke:#000000;stroke-width:0.05;stroke-linecap:butt;stroke-linejoin:miter;stroke-miterlimit:4;stroke-dasharray:none;stroke-opacity:1" />
    <path
       transform="scale(0.26458333)"
       id="path976"
       d="m 100.13679,121.9383 c -1.951397,-0.36529 -5.292641,-1.54986 -8.884147,-3.14971 -1.799119,-0.80143 -3.068787,-1.40797 -3.928352,-1.87665 -0.360937,-0.1968 -0.820031,-0.41162 -1.020207,-0.47739 -1.739032,-0.57132 -6.026652,-0.43405 -9.96514,0.31905 -1.010168,0.19316 -1.823262,0.40717 -2.827153,0.7441 -0.498438,0.1673 -1.13125,0.34812 -1.40625,0.40183 -1.600437,0.3126 -4.006315,0.30229 -7.125,-0.0305 -1.765953,-0.18846 -4.563864,-0.60386 -5.0625,-0.75162 -0.922318,-0.27332 -1.95524,-0.848 -3.186376,-1.77278 -1.624192,-1.22004 -3.568786,-3.11585 -3.909605,-3.81153 -0.594392,-1.21326 -0.316849,-2.76113 0.794393,-4.43035 0.484648,-0.72799 1.04961,-1.32228 1.489088,-1.56637 0.448915,-0.24933 1.283312,-0.51644 2.002677,-0.64109 0.80322,-0.13918 3.318115,-0.15121 4.997323,-0.0239 1.705001,0.12925 3.092193,0.12312 3.545441,-0.0157 0.433409,-0.13272 0.943998,-0.59945 1.176802,-1.07571 0.133047,-0.27217 0.152494,-0.39717 0.150719,-0.96875 -0.0018,-0.57443 -0.0238,-0.70825 -0.176615,-1.07336 -0.393294,-0.93969 -0.667235,-1.19413 -1.566073,-1.4546 -0.863564,-0.25026 -1.973942,-0.344961 -4.817774,-0.410914 -1.44375,-0.03348 -2.920313,-0.09087 -3.28125,-0.12753 -1.913612,-0.19435 -4.251711,-0.961 -6.494057,-2.129363 -1.823731,-0.950247 -2.549589,-1.462095 -2.694019,-1.899724 -0.115979,-0.351418 0.0131,-0.639553 0.6906,-1.541629 0.574305,-0.764671 0.872476,-1.312953 0.872476,-1.604326 0,-0.278382 0.483015,-0.535427 1.26098,-0.671053 0.601903,-0.104933 1.57119,-0.102749 6.11402,0.01378 1.307072,0.03353 1.589977,0.02421 1.932389,-0.06365 0.78781,-0.202142 1.093993,-0.537232 1.086159,-1.188708 -0.0047,-0.390263 -0.214797,-1.123137 -0.476029,-1.660457 -0.350092,-0.720096 -1.25421,-1.018632 -5.493781,-1.814026 -2.363267,-0.443377 -2.99976,-0.574848 -3.782243,-0.781244 -1.17803,-0.31073 -1.600078,-0.67448 -1.591184,-1.371392 0.0049,-0.385135 0.12358,-0.729325 0.463852,-1.345414 0.142813,-0.258575 0.361247,-0.66508 0.485409,-0.903344 0.124163,-0.238265 0.294584,-0.484455 0.378714,-0.547088 0.227562,-0.169416 0.904128,-0.288567 2.059185,-0.362646 2.667905,-0.171103 3.285917,-0.249137 3.95056,-0.498818 0.205899,-0.07735 0.42429,-0.21426 0.516416,-0.323745 l 0.159635,-0.189715 0.421084,0.3737 c 0.65907,0.584906 0.676312,0.609077 0.572641,0.802788 -0.13961,0.260864 -0.555462,0.70556 -0.757495,0.810035 -0.161,0.08326 -0.458687,0.08999 -2.263897,0.05122 -2.0063,-0.04309 -2.093661,-0.04004 -2.514251,0.08771 -1.060196,0.322024 -1.356509,0.877051 -0.924809,1.732266 0.587302,1.163465 1.292473,1.386851 5.902645,1.869852 3.801998,0.39833 5.539332,0.758986 6.668589,1.384345 0.418205,0.231592 0.630121,0.453526 1.656301,1.73459 1.598437,1.99546 1.735884,2.211469 1.736999,2.729849 9e-4,0.418712 -0.218192,0.809843 -0.546466,0.975566 -0.51123,0.258086 -1.140091,0.295388 -3.952923,0.234473 -4.760264,-0.103089 -5.790313,-0.0596 -6.286361,0.265426 -0.177462,0.116277 -0.792019,0.955696 -1.102645,1.506095 -0.167604,0.296978 -0.202984,0.426492 -0.203781,0.745952 -8.62e-4,0.344641 0.01938,0.408003 0.186537,0.584066 0.526644,0.554699 0.954389,0.634087 5.048337,0.936959 5.153148,0.381232 7.497052,0.6918 9.889163,1.310317 2.172275,0.561676 3.541672,1.311337 3.998189,2.188757 0.205755,0.39547 0.365675,1.83815 0.283563,2.5581 -0.148341,1.30065 -0.710778,1.89161 -2.281752,2.39747 -0.636778,0.20505 -0.764144,0.21806 -2.90625,0.29696 -2.65042,0.0976 -4.108335,0.27017 -5.34375,0.63248 -1.458772,0.42782 -2.486895,1.15968 -2.952451,2.10167 -0.20977,0.42444 -0.234894,0.52635 -0.2336,0.94758 0.0017,0.55728 0.127887,0.84595 0.582475,1.33261 1.030522,1.10323 3.632865,2.08326 7.072326,2.66341 1.484884,0.25047 2.717777,0.38529 3.875,0.42377 0.848995,0.0282 1.088505,0.0121 1.9375,-0.13021 3.93925,-0.66044 12.478042,-1.44057 14.453077,-1.32048 1.009347,0.0614 1.473072,0.22535 2.24475,0.79377 0.588264,0.43332 0.867134,0.5153 1.612949,0.47421 l 0.60704,-0.0335 4.087967,3.74802 c 2.248382,2.06142 4.143436,3.80227 4.211226,3.86856 0.12205,0.11934 0.11957,0.12048 -0.25,0.11465 -0.20529,-0.003 -0.64045,-0.0559 -0.96701,-0.11703 z"
       style="opacity:1;fill:#917c6f;fill-opacity:0.90338165;stroke:none;stroke-width:0.01181102;stroke-miterlimit:4;stroke-dasharray:none;stroke-opacity:1" />
    <path
       transform="scale(0.26458333)"
       id="path978"
       d="m 70.25975,114.12871 c -2.623484,-0.30078 -5.653584,-1.05927 -7.1875,-1.79916 -1.082397,-0.5221 -1.714303,-1.03901 -1.996093,-1.63284 -0.305274,-0.64332 -0.07654,-1.42452 0.621464,-2.12253 1.164177,-1.16417 2.891563,-1.61351 6.999629,-1.82079 2.342087,-0.11817 2.889061,-0.18434 3.6875,-0.44611 1.156779,-0.37925 1.643205,-0.73911 2.002597,-1.48151 0.25001,-0.51645 0.272547,-0.71623 0.222478,-1.97215 -0.06233,-1.56335 -0.195321,-1.93846 -0.909665,-2.56566 -1.654263,-1.452466 -5.517964,-2.27491 -13.574443,-2.88952 -4.135909,-0.315519 -4.865967,-0.503941 -4.865967,-1.255868 0,-0.341898 0.801146,-1.678776 1.207588,-2.01511 0.166832,-0.138056 1.095331,-0.172048 4.780977,-0.17503 4.861463,-0.0039 5.450509,-0.06359 5.818749,-0.589328 0.582871,-0.832165 0.32449,-1.567604 -1.21893,-3.469471 -0.585822,-0.721875 -1.046434,-1.331741 -1.023582,-1.355259 0.05654,-0.05819 27.735276,25.346586 27.795798,25.512216 0.09059,0.24791 -1.108992,-0.018 -1.530077,-0.33918 -0.223733,-0.17065 -0.684939,-0.43853 -1.024904,-0.59528 -0.568616,-0.26217 -0.77829,-0.28351 -2.618119,-0.26647 -2.693891,0.025 -9.501034,0.66974 -13.029904,1.23423 -1.248257,0.19968 -2.672982,0.21504 -4.157596,0.0448 z"
       style="opacity:1;fill:#00acc3;fill-opacity:0.63285068;stroke:none;stroke-width:0.02362205;stroke-miterlimit:4;stroke-dasharray:none;stroke-opacity:1" />
    <path
       transform="scale(0.26458333)"
       id="path980"
       d="m 77.38475,132.12642 c -1.340625,-0.54738 -9.46875,-3.81076 -18.0625,-7.25195 -8.59375,-3.44119 -15.678508,-6.3072 -15.743907,-6.36893 -0.116273,-0.10973 5.344704,-43.658644 5.536838,-44.15386 0.07393,-0.19054 0.682014,0.315111 3.585546,2.981526 1.923087,1.766038 3.496523,3.303667 3.496523,3.416953 0,0.356012 -1.163061,0.634878 -3.225493,0.773373 -2.244013,0.150688 -3.116308,0.304635 -3.370315,0.594811 -0.102448,0.117034 -0.432176,0.687819 -0.73273,1.268409 -0.911718,1.761197 -0.728192,2.58661 0.692876,3.116231 0.349614,0.130299 1.704412,0.44298 3.010662,0.694849 3.871617,0.746516 5.187396,1.052426 5.869136,1.364537 0.587602,0.269014 0.66924,0.358889 0.919122,1.011874 0.444395,1.161275 0.337922,1.696479 -0.384958,1.93505 -0.270247,0.08919 -1.801823,0.124744 -4.46971,0.103761 -3.846298,-0.03025 -4.084293,-0.01884 -4.549977,0.218079 -0.270262,0.1375 -0.530625,0.334375 -0.578583,0.4375 -0.04796,0.103125 -0.181845,0.407578 -0.297527,0.676561 -0.115681,0.268983 -0.464753,0.8129 -0.775714,1.208704 -0.384957,0.489989 -0.587066,0.881296 -0.633327,1.226199 -0.0607,0.452516 -0.0229,0.551224 0.354297,0.92528 0.802979,0.796294 4.389311,2.594616 6.243927,3.130941 1.728817,0.499946 2.58722,0.600552 6.053314,0.709482 3.602915,0.11323 4.538927,0.21784 5.305752,0.59299 0.560664,0.2743 1.002819,1.05926 1.090144,1.93535 0.05488,0.55058 0.018,0.72599 -0.227705,1.083 -0.672939,0.97778 -0.557554,0.95989 -5.29365,0.82066 -3.480208,-0.10231 -4.329121,-0.0325 -5.665313,0.4661 -1.581321,0.59002 -3.133564,2.90816 -3.245821,4.84733 -0.08304,1.4345 0.171494,1.9177 1.891903,3.59146 1.667813,1.62259 3.156686,2.7497 4.533978,3.43231 0.892607,0.44239 1.252513,0.53817 3.000001,0.7984 4.286206,0.63828 7.863487,0.8374 9.860711,0.54888 0.48125,-0.0695 1.474966,-0.32035 2.208259,-0.55738 1.51216,-0.48881 4.016958,-0.97728 6.032201,-1.17637 1.748134,-0.1727 4.692285,-0.1735 5.622574,-0.002 0.449092,0.083 1.578502,0.55144 2.991707,1.2408 5.339507,2.60462 10.279537,4.38641 12.619889,4.55177 0.66188,0.0468 0.76683,0.10049 1.53118,0.78372 l 0.8206,0.73351 -11.673659,4.65342 c -6.42051,2.55937 -11.725201,4.64847 -11.788202,4.64242 -0.063,-0.006 -1.211424,-0.45884 -2.552049,-1.00622 z"
       style="opacity:1;fill:#00acc3;fill-opacity:0.63285068;stroke:none;stroke-width:0.02362205;stroke-miterlimit:4;stroke-dasharray:none;stroke-opacity:1" />
    <path
       transform="scale(0.26458333)"
       id="path982"
       d="M 63.098686,87.436803 C 62.042477,86.99378 60.438853,86.69498 57.19725,86.3372 54.019618,85.986482 52.580062,85.722186 52.031991,85.388884 51.832278,85.267432 51.545124,84.912421 51.39387,84.599972 c -0.340799,-0.703995 -0.234266,-0.964109 0.518167,-1.265173 0.451023,-0.180463 0.882759,-0.207236 2.762104,-0.171281 l 2.227523,0.04261 0.505927,-0.54183 0.505926,-0.541829 0.391866,0.36409 c 0.215527,0.20025 1.460617,1.337594 2.766867,2.527431 3.471047,3.161709 3.299737,2.956889 2.026436,2.422808 z"
       style="opacity:1;fill:#51ae22;fill-opacity:1;stroke:none;stroke-width:0.02362205;stroke-miterlimit:4;stroke-dasharray:none;stroke-opacity:1" />
    <path
       transform="scale(0.26458333)"
       id="path984"
       d="m 68.69725,113.83943 c -4.055425,-0.71105 -6.683813,-1.76312 -7.448962,-2.98161 -0.711275,-1.13269 0.371131,-2.68298 2.323962,-3.32852 1.056961,-0.34939 1.890225,-0.47887 4.084042,-0.63459 4.066513,-0.28865 5.153274,-0.50303 6.061467,-1.19574 0.703657,-0.53671 0.916991,-1.11716 0.916991,-2.495 0,-1.70246 -0.148516,-2.1812 -0.892569,-2.87717 -1.635437,-1.529764 -5.089315,-2.277504 -13.857431,-3.000037 -4.575481,-0.37704 -4.973165,-0.557412 -4.244246,-1.925003 0.215868,-0.405011 0.532302,-0.867838 0.703186,-1.028505 l 0.310698,-0.292122 4.646431,-0.07668 c 2.555537,-0.04217 4.830345,-0.119736 5.055129,-0.172364 0.540058,-0.126443 1.028802,-0.716436 1.028802,-1.241932 0,-0.511192 -0.465013,-1.396985 -1.273344,-2.425568 -0.342294,-0.435561 -0.599585,-0.814697 -0.571757,-0.842525 0.05793,-0.05793 0.706237,0.529 10.845101,9.818464 13.295788,12.181912 16.181665,14.863112 16.093095,14.951682 -0.108617,0.10861 -1.181105,-0.30059 -1.765319,-0.67355 -1.019316,-0.65073 -1.610215,-0.71873 -4.75232,-0.5469 -3.087696,0.16886 -8.023205,0.64759 -10.556639,1.02397 -2.270068,0.33725 -4.571921,0.31792 -6.706317,-0.0563 z"
       style="opacity:1;fill:#51ae22;fill-opacity:1;stroke:none;stroke-width:0.02362205;stroke-miterlimit:4;stroke-dasharray:none;stroke-opacity:1" />
    <path
       transform="scale(0.26458333)"
       id="path986"
       d="m 65.400047,127.26638 c -16.021141,-6.43678 -21.649005,-8.71479 -21.729878,-8.79566 -0.158732,-0.15873 5.314854,-43.844027 5.51906,-44.048234 0.09529,-0.09529 0.995408,0.671972 3.504961,2.987626 2.926387,2.700282 3.526865,3.322216 3.364431,3.48465 -0.175929,0.175929 -1.656516,0.464446 -2.861371,0.557585 -2.078673,0.160688 -3.195942,0.349446 -3.504357,0.592045 -0.410085,0.322573 -1.321418,2.193416 -1.396693,2.86722 -0.04822,0.43166 -0.004,0.616492 0.213175,0.891759 0.539315,0.683453 0.868825,0.785489 5.750375,1.780658 2.844988,0.579989 4.141033,0.931312 4.581488,1.241915 0.322359,0.227325 0.668512,1.178553 0.668512,1.837075 0,0.831855 -0.0061,0.832955 -4.875,0.878115 -5.004072,0.04641 -4.921303,0.02804 -5.531283,1.227959 -0.18908,0.371949 -0.574536,1.005234 -0.856569,1.407299 -0.659481,0.940156 -0.770846,1.59457 -0.348023,2.045096 0.692778,0.738169 3.935073,2.447686 5.866347,3.093063 1.620666,0.541578 2.808626,0.698849 6.744528,0.892869 3.989661,0.19668 4.479541,0.25788 5.151626,0.64362 0.855638,0.49108 1.271413,2.15058 0.740536,2.95573 -0.522211,0.792 -0.425845,0.77757 -4.894796,0.73335 -4.473263,-0.0443 -5.187704,0.0333 -6.403877,0.69523 -2.084479,1.13451 -3.475802,4.54717 -2.576437,6.31951 0.475783,0.93761 3.036938,3.39743 4.750475,4.56252 1.050875,0.71452 2.269558,1.2403 3.357473,1.44851 2.766596,0.52948 5.14229,0.74922 8.1875,0.75729 l 3,0.008 1.625,-0.46816 c 3.586579,-1.03328 5.784195,-1.35488 9.3125,-1.36278 2.976024,-0.007 2.720504,-0.0721 6.3125,1.61555 5.124011,2.40739 9.028981,3.82131 11.60597,4.20233 1.07896,0.15952 1.52881,0.39976 2.30216,1.22942 l 0.28312,0.30375 -6.845624,2.72542 c -12.226985,4.86789 -16.259544,6.44204 -16.492177,6.43792 -0.125647,-0.002 -6.66219,-2.58892 -14.525652,-5.74821 z"
       style="opacity:1;fill:#51ae22;fill-opacity:1;stroke:none;stroke-width:0.02362205;stroke-miterlimit:4;stroke-dasharray:none;stroke-opacity:1" />
    <path
       transform="scale(0.26458333)"
       id="path988"
       d="m 69.010857,57.864707 -7.576648,-6.916388 31.125979,-0.02222 c 17.119292,-0.01222 31.142052,-0.0061 31.161692,0.01349 0.0254,0.02536 -6.53962,9.960223 -6.74072,10.200822 -0.089,0.106522 -4.13654,0.519282 -6.2731,0.639723 -2.17484,0.122598 -3.18416,0.03749 -3.84945,-0.324616 -0.30889,-0.168115 -0.45613,-0.30887 -0.48983,-0.468233 -0.10377,-0.490779 -0.2127,-0.616567 -0.7601,-0.877689 -0.8886,-0.423887 -1.51821,-0.500756 -2.72299,-0.332449 -1.63604,0.228555 -1.88499,0.388913 -3.561511,2.294106 -0.604407,0.68685 -0.892535,0.788968 -1.534415,0.543833 -0.357889,-0.13668 -0.466574,-0.25104 -0.957391,-1.007389 -0.734843,-1.132391 -1.317567,-2.220969 -1.587968,-2.96646 -0.121416,-0.334743 -0.271492,-0.641783 -0.333501,-0.68231 -0.541899,-0.354162 -1.121181,-0.04122 -2.808591,1.517264 -2.296976,2.121478 -3.249989,2.906537 -3.611146,2.974738 -0.177175,0.03346 -0.634187,0.01553 -1.015582,-0.03984 -0.770015,-0.111792 -0.976438,-0.05588 -1.377116,0.373009 -0.415273,0.444511 -1.084708,0.493044 -3.763068,0.272818 -1.652336,-0.135862 -3.198243,-0.17106 -3.439916,-0.07832 -0.0769,0.02951 -0.139812,0.105371 -0.139812,0.168586 0,0.173601 -0.839258,0.892405 -1.500885,1.28547 -0.322588,0.191646 -0.604694,0.348448 -0.626904,0.348448 -0.02221,0 -3.44987,-3.112374 -7.617027,-6.916388 z"
       style="opacity:1;fill:#37c837;fill-opacity:1;stroke:none;stroke-width:0.01670331;stroke-miterlimit:4;stroke-dasharray:none;stroke-opacity:1" />
    <path
       transform="scale(0.26458333)"
       id="path990"
       d="m 79.059212,132.66983 c -3.085785,-1.17972 -22.838666,-9.09332 -31.6875,-12.69496 -4.120136,-1.67697 -3.655206,-1.45609 -3.65577,-1.73685 -0.0024,-1.19567 3.944723,-32.868221 5.412989,-43.434917 0.02282,-0.164219 0.06217,-0.311364 0.08745,-0.326988 0.134963,-0.08341 1.729094,1.314526 5.000934,4.385457 1.2391,1.163013 1.810645,1.774627 1.810645,1.937585 0,0.208272 -1.090028,0.451251 -2.75,0.613005 -3.165342,0.308442 -3.523114,0.39862 -3.895911,0.981975 -0.599151,0.937558 -1.104089,2.178935 -1.104089,2.714377 0,0.401373 0.08857,0.595155 0.416723,0.91178 0.495297,0.47789 1.126971,0.663896 4.946083,1.456456 3.421063,0.709955 4.716895,1.051355 5.154546,1.358014 0.345659,0.242201 0.670148,1.128589 0.670148,1.830606 0,0.777295 0.05152,0.767877 -4.61359,0.843507 -3.817933,0.0619 -4.557375,0.109375 -4.997485,0.320883 -0.307196,0.147632 -0.450727,0.325168 -0.826192,1.021925 -0.14819,0.275 -0.452102,0.78125 -0.675359,1.125 -0.567865,0.874345 -0.698527,1.175328 -0.699264,1.610771 -5.68e-4,0.335984 0.01703,0.379911 0.256174,0.63935 0.748163,0.811661 4.059585,2.5351 6.118216,3.184242 1.547077,0.487836 2.510244,0.604232 7,0.845912 3.252174,0.17507 3.84551,0.24396 4.417685,0.51291 0.397613,0.1869 0.689602,0.49868 0.911883,0.97368 0.1546,0.33038 0.194068,0.50826 0.219148,0.98773 0.02826,0.54034 0.01788,0.61076 -0.136569,0.92645 -0.21914,0.4479 -0.506926,0.69496 -0.910296,0.78147 -0.211303,0.0453 -1.517283,0.069 -3.833052,0.0694 -4.72965,8.7e-4 -5.325378,0.062 -6.495518,0.66633 -1.447216,0.74746 -2.653104,2.58449 -2.927237,4.45929 -0.132656,0.90724 0.0085,1.608 0.458931,2.27852 0.314917,0.46877 2.290355,2.45161 3.170025,3.1819 1.271612,1.05567 2.590317,1.84065 3.738101,2.22515 0.553587,0.18545 2.030566,0.47474 3.324399,0.65115 1.636752,0.22316 2.788561,0.29568 5.375,0.33839 3.728029,0.0616 3.323091,0.0906 4.875,-0.34988 2.49138,-0.7072 3.767893,-0.99152 5.375,-1.19717 1.375767,-0.17605 3.552584,-0.2755 5.15625,-0.23556 1.955383,0.0487 2.022348,0.0686 5.168161,1.53524 5.287851,2.46532 8.864102,3.77452 11.628629,4.25702 0.40386,0.0705 0.8883,0.18579 1.07655,0.25622 0.42119,0.15759 0.97616,0.55934 1.33362,0.96544 0.23626,0.26841 0.25526,0.31094 0.15603,0.3492 -0.0621,0.024 -3.09424,1.23007 -6.73799,2.68024 -9.930976,3.95242 -16.301339,6.44922 -16.421146,6.43608 -0.009,-9.8e-4 -0.410104,-0.15232 -0.891354,-0.33631 z"
       style="opacity:1;fill:#37c837;fill-opacity:1;stroke:none;stroke-width:0.01181102;stroke-miterlimit:4;stroke-dasharray:none;stroke-opacity:1" />
    <path
       id="path992"
       d="m 18.823004,30.183511 c -0.210512,-0.0093 -0.575042,-0.05564 -0.835091,-0.106201 -1.014179,-0.197176 -1.644715,-0.473427 -1.812203,-0.793962 -0.04052,-0.07755 -0.03845,-0.233273 0.0044,-0.328488 0.08235,-0.1831 0.275611,-0.353513 0.515757,-0.454792 0.270951,-0.114274 0.564524,-0.166693 1.201118,-0.214474 1.107361,-0.08311 1.372954,-0.138295 1.622006,-0.337003 0.164506,-0.131252 0.221455,-0.305242 0.221684,-0.67728 2.48e-4,-0.404583 -0.04541,-0.544542 -0.23649,-0.724892 -0.277182,-0.261624 -0.717338,-0.423571 -1.517328,-0.558273 -0.5458,-0.0919 -1.041338,-0.147787 -2.357782,-0.2659 -0.813377,-0.07298 -0.981504,-0.120335 -0.981504,-0.276468 0,-0.106487 0.165337,-0.39814 0.285529,-0.50367 l 0.05673,-0.04981 0.816924,-0.0114 c 1.213626,-0.01694 1.707942,-0.03752 1.791403,-0.07457 0.08304,-0.03687 0.180528,-0.142482 0.207801,-0.225122 0.05034,-0.152522 -0.05399,-0.381767 -0.352275,-0.774113 -0.05392,-0.07093 -0.09422,-0.132778 -0.08956,-0.137446 0.0047,-0.0047 0.03706,0.01616 0.07198,0.04628 0.205402,0.177153 4.161455,3.797843 5.587147,5.11351 0.870576,0.803391 1.413899,1.316162 1.413899,1.334391 0,0.04294 -0.209983,-0.03389 -0.43256,-0.158257 -0.282986,-0.158126 -0.417672,-0.183354 -0.890357,-0.166767 -0.835666,0.02932 -2.040332,0.137678 -3.141927,0.282609 -0.473622,0.06231 -0.775187,0.07861 -1.149284,0.06211 z"
       style="opacity:1;fill:#37c837;fill-opacity:1;stroke:none;stroke-width:0.003125;stroke-miterlimit:4;stroke-dasharray:none;stroke-opacity:1" />
    <path
       transform="scale(0.26458333)"
       id="path994"
       d="m 72.146993,60.639608 c -2.471545,-2.249261 -5.849739,-5.327066 -7.507098,-6.839566 l -3.01338,-2.75 15.491062,-0.03174 c 8.520083,-0.01746 22.466037,-0.01746 30.991013,0 l 15.49995,0.03174 -3.30334,4.996927 c -2.55241,3.861 -3.37479,5.016037 -3.61765,5.080988 -0.84419,0.225771 -4.75506,0.531622 -6.89141,0.538944 -2.17641,0.0075 -2.41158,-0.01327 -2.8125,-0.247903 -0.24063,-0.140824 -0.5324,-0.455814 -0.6484,-0.699977 -0.45463,-0.957015 -2.58542,-1.344958 -4.41361,-0.803568 -0.66542,0.197054 -0.89059,0.360792 -2.007126,1.459522 -1.116857,1.099047 -1.307384,1.237567 -1.702199,1.237567 -0.317306,0 -0.542061,-0.09748 -0.785105,-0.340528 -0.434406,-0.434406 -1.557977,-2.329367 -2.075,-3.499595 -0.241431,-0.546456 -0.492818,-0.932467 -0.63708,-0.978254 -0.440362,-0.139766 -1.281605,0.428097 -3.293982,2.22353 -2.74759,2.451387 -2.572506,2.344847 -3.853456,2.344847 -0.979359,0 -1.097645,0.0276 -1.473139,0.34375 -0.391556,0.329672 -0.4649,0.34375 -1.790841,0.34375 -0.76041,0 -2.29035,-0.05022 -3.399868,-0.11159 -2.001751,-0.110731 -2.018432,-0.109482 -2.163735,0.162018 -0.131296,0.245329 -1.36886,1.237736 -1.89391,1.518735 -0.162609,0.08703 -1.14299,-0.743228 -4.699196,-3.979597 z"
       style="opacity:1;fill:#00ccff;fill-opacity:1;stroke:none;stroke-width:0.02362205;stroke-miterlimit:4;stroke-dasharray:none;stroke-opacity:1" />
    <path
       transform="matrix(0.25691218,0,0,0.3318878,18.339523,21.612049)"
       d="m -4.7294263,29.302605 c 0.1220149,-0.228563 -8.7685617,0.06717 -8.6316277,0.287118 0.136934,0.21995 4.3261106,-7.627382 4.0671618,-7.618768 -0.2589488,0.0086 4.442451,7.560213 4.5644659,7.33165 z"
       id="path1002"
       style="opacity:1;fill:#338000;fill-opacity:1;stroke:none;stroke-width:0.05;stroke-miterlimit:4;stroke-dasharray:none;stroke-opacity:1" />
    <rect
       y="31.190542"
       x="15.812021"
       height="0.68988949"
       width="0.30401909"
       id="rect1018"
       style="opacity:1;fill:#6c5d53;fill-opacity:1;stroke:none;stroke-width:0.0384798;stroke-miterlimit:4;stroke-dasharray:none;stroke-opacity:1" />
    <path
       style="opacity:1;fill:#338000;fill-opacity:1;stroke:none;stroke-width:0.05;stroke-miterlimit:4;stroke-dasharray:none;stroke-opacity:1"
       id="path1024"
       d="m -4.7294263,29.302605 c 0.1220149,-0.228563 -8.7685617,0.06717 -8.6316277,0.287118 0.136934,0.21995 4.3261106,-7.627382 4.0671618,-7.618768 -0.2589488,0.0086 4.442451,7.560213 4.5644659,7.33165 z"
       transform="matrix(0.25691218,0,0,0.3318878,23.656828,23.681039)" />
    <rect
       style="opacity:1;fill:#6c5d53;fill-opacity:1;stroke:none;stroke-width:0.0384798;stroke-miterlimit:4;stroke-dasharray:none;stroke-opacity:1"
       id="rect1026"
       width="0.30401909"
       height="0.68988949"
       x="21.129328"
       y="33.259533" />
    <path
       transform="matrix(0.11572347,0,0,0.20876265,21.495391,22.086353)"
       d="m -4.7294263,29.302605 c 0.1220149,-0.228563 -8.7685617,0.06717 -8.6316277,0.287118 0.136934,0.21995 4.3261106,-7.627382 4.0671618,-7.618768 -0.2589488,0.0086 4.442451,7.560213 4.5644659,7.33165 z"
       id="path1028"
       style="opacity:1;fill:#338000;fill-opacity:1;stroke:none;stroke-width:0.05;stroke-miterlimit:4;stroke-dasharray:none;stroke-opacity:1" />
    <rect
       y="28.073669"
       x="20.35174"
       height="0.40925649"
       width="0.18124215"
       id="rect1030"
       style="opacity:1;fill:#6c5d53;fill-opacity:1;stroke:none;stroke-width:0.02288337;stroke-miterlimit:4;stroke-dasharray:none;stroke-opacity:1" />
    <path
       style="opacity:1;fill:#338000;fill-opacity:1;stroke:none;stroke-width:0.05;stroke-miterlimit:4;stroke-dasharray:none;stroke-opacity:1"
       id="path1032"
       d="m -4.7294263,29.302605 c 0.1220149,-0.228563 -8.7685617,0.06717 -8.6316277,0.287118 0.136934,0.21995 4.3261106,-7.627382 4.0671618,-7.618768 -0.2589488,0.0086 4.442451,7.560213 4.5644659,7.33165 z"
       transform="matrix(0.14552097,0,0,0.27110098,19.802141,21.094552)" />
    <rect
       style="opacity:1;fill:#6c5d53;fill-opacity:1;stroke:none;stroke-width:0.02951753;stroke-miterlimit:4;stroke-dasharray:none;stroke-opacity:1"
       id="rect1034"
       width="0.2213368"
       height="0.55759782"
       x="18.330334"
       y="28.939299" />
    <rect
       style="opacity:1;fill:#6c5d53;fill-opacity:1;stroke:none;stroke-width:0.0384798;stroke-miterlimit:4;stroke-dasharray:none;stroke-opacity:1"
       id="rect1036"
       width="0.30401909"
       height="0.68988949"
       x="15.812021"
       y="31.190542" />
    <path
       style="opacity:1;fill:#338000;fill-opacity:1;stroke:none;stroke-width:0.05;stroke-miterlimit:4;stroke-dasharray:none;stroke-opacity:1"
       id="path1038"
       d="m -4.7294263,29.302605 c 0.1220149,-0.228563 -8.7685617,0.06717 -8.6316277,0.287118 0.136934,0.21995 4.3261106,-7.627382 4.0671618,-7.618768 -0.2589488,0.0086 4.442451,7.560213 4.5644659,7.33165 z"
       transform="matrix(0.12404397,0,0,0.25031927,24.33475,24.881761)" />
    <rect
       y="32.112438"
       x="23.086624"
       height="0.45837906"
       width="0.17172742"
       id="rect1042"
       style="opacity:1;fill:#6c5d53;fill-opacity:1;stroke:none;stroke-width:0.02357354;stroke-miterlimit:4;stroke-dasharray:none;stroke-opacity:1" />
    <path
       transform="matrix(0.25691218,0,0,0.3318878,20.546478,22.956071)"
       d="m -4.7294263,29.302605 c 0.1220149,-0.228563 -8.7685617,0.06717 -8.6316277,0.287118 0.136934,0.21995 4.3261106,-7.627382 4.0671618,-7.618768 -0.2589488,0.0086 4.442451,7.560213 4.5644659,7.33165 z"
       id="path1044"
       style="opacity:1;fill:#338000;fill-opacity:1;stroke:none;stroke-width:0.05;stroke-miterlimit:4;stroke-dasharray:none;stroke-opacity:1" />
    <rect
       y="32.534561"
       x="18.018978"
       height="0.68988949"
       width="0.30401909"
       id="rect1046"
       style="opacity:1;fill:#6c5d53;fill-opacity:1;stroke:none;stroke-width:0.0384798;stroke-miterlimit:4;stroke-dasharray:none;stroke-opacity:1" />
    <rect
       style="opacity:1;fill:#6c5d53;fill-opacity:1;stroke:none;stroke-width:0.0384798;stroke-miterlimit:4;stroke-dasharray:none;stroke-opacity:1"
       id="rect1048"
       width="0.30401909"
       height="0.68988949"
       x="18.018978"
       y="32.534561" />
    <path
       style="opacity:1;fill:#338000;fill-opacity:1;stroke:none;stroke-width:0.05;stroke-miterlimit:4;stroke-dasharray:none;stroke-opacity:1"
       id="path1050"
       d="m -4.7294263,29.302605 c 0.1220149,-0.228563 -8.7685617,0.06717 -8.6316277,0.287118 0.136934,0.21995 4.3261106,-7.627382 4.0671618,-7.618768 -0.2589488,0.0086 4.442451,7.560213 4.5644659,7.33165 z"
       transform="matrix(0.25691218,0,0,0.3318878,16.103122,17.320025)" />
    <rect
       style="opacity:1;fill:#6c5d53;fill-opacity:1;stroke:none;stroke-width:0.0384798;stroke-miterlimit:4;stroke-dasharray:none;stroke-opacity:1"
       id="rect1052"
       width="0.30401909"
       height="0.68988949"
       x="13.575623"
       y="26.898516" />
    <rect
       y="26.898516"
       x="13.575623"
       height="0.68988949"
       width="0.30401909"
       id="rect1054"
       style="opacity:1;fill:#6c5d53;fill-opacity:1;stroke:none;stroke-width:0.0384798;stroke-miterlimit:4;stroke-dasharray:none;stroke-opacity:1" />
    <path
       transform="matrix(0.25691218,0,0,0.3318878,15.419939,20.386641)"
       d="m -4.7294263,29.302605 c 0.1220149,-0.228563 -8.7685617,0.06717 -8.6316277,0.287118 0.136934,0.21995 4.3261106,-7.627382 4.0671618,-7.618768 -0.2589488,0.0086 4.442451,7.560213 4.5644659,7.33165 z"
       id="path1056"
       style="opacity:1;fill:#338000;fill-opacity:1;stroke:none;stroke-width:0.05;stroke-miterlimit:4;stroke-dasharray:none;stroke-opacity:1" />
    <rect
       style="opacity:1;fill:#6c5d53;fill-opacity:1;stroke:none;stroke-width:0.0384798;stroke-miterlimit:4;stroke-dasharray:none;stroke-opacity:1"
       id="rect1060"
       width="0.30401909"
       height="0.68988949"
       x="13.084515"
       y="29.903627" />
    <path
       style="opacity:1;fill:#338000;fill-opacity:1;stroke:none;stroke-width:0.05;stroke-miterlimit:4;stroke-dasharray:none;stroke-opacity:1"
       id="path1062"
       d="m -4.7294263,29.302605 c 0.1220149,-0.228563 -8.7685617,0.06717 -8.6316277,0.287118 0.136934,0.21995 4.3261106,-7.627382 4.0671618,-7.618768 -0.2589488,0.0086 4.442451,7.560213 4.5644659,7.33165 z"
       transform="matrix(0.10488818,0,0,0.2751721,17.331264,17.327209)" />
    <rect
       y="25.342997"
       x="16.272963"
       height="0.34262386"
       width="0.18826388"
       id="rect1066"
       style="opacity:1;fill:#6c5d53;fill-opacity:1;stroke:none;stroke-width:0.02133953;stroke-miterlimit:4;stroke-dasharray:none;stroke-opacity:1" />
    <path
       transform="matrix(0.11065501,0,0,0.17543481,15.423285,18.512381)"
       d="m -4.7294263,29.302605 c 0.1220149,-0.228563 -8.7685617,0.06717 -8.6316277,0.287118 0.136934,0.21995 4.3261106,-7.627382 4.0671618,-7.618768 -0.2589488,0.0086 4.442451,7.560213 4.5644659,7.33165 z"
       id="path1068"
       style="opacity:1;fill:#338000;fill-opacity:1;stroke:none;stroke-width:0.05;stroke-miterlimit:4;stroke-dasharray:none;stroke-opacity:1" />
    <rect
       style="opacity:1;fill:#6c5d53;fill-opacity:1;stroke:none;stroke-width:0.02460107;stroke-miterlimit:4;stroke-dasharray:none;stroke-opacity:1"
       id="rect1072"
       width="0.2221678"
       height="0.3858704"
       x="14.323977"
       y="23.601078" />
    <path
       style="opacity:1;fill:#338000;fill-opacity:1;stroke:none;stroke-width:0.05;stroke-miterlimit:4;stroke-dasharray:none;stroke-opacity:1"
       id="path1074"
       d="m -4.7294263,29.302605 c 0.1220149,-0.228563 -8.7685617,0.06717 -8.6316277,0.287118 0.136934,0.21995 4.3261106,-7.627382 4.0671618,-7.618768 -0.2589488,0.0086 4.442451,7.560213 4.5644659,7.33165 z"
       transform="matrix(0.06731955,0,0,0.12481767,13.940522,17.306748)" />
    <rect
       y="20.955933"
       x="13.268278"
       height="0.25724694"
       width="0.11693043"
       id="rect1078"
       style="opacity:1;fill:#6c5d53;fill-opacity:1;stroke:none;stroke-width:0.01457241;stroke-miterlimit:4;stroke-dasharray:none;stroke-opacity:1" />
  </g>
</svg>
